# xmcd
#
# Track frame offsets:
#   150
#   160737
#   310494
#
# Disc length: 4491 seconds
#
# Revision: 0
# Processed by: cddbd v1.5.2PL0 Copyright (c) Steve Scherf et al.
# Submitted via: uFREEDB ActiveX Control 1.5
#
DISCID=1d118903
DTITLE=12 - 012
DYEAR=1900
DGENRE=Alternative
TTITLE0=121
TTITLE1=122
TTITLE2=123
EXTD=
EXTT0=
EXTT1=
EXTT2=
PLAYORDER=
